<svg width="22" height="22" viewBox="0 0 22 22" fill="none" xmlns="http://www.w3.org/2000/svg">
<g id="Icons / Set 2 / Camera">
<path id="Combined-Shape" d="M10.9996 8.71475C11.9236 8.71475 12.7948 9.07515 13.446 9.72563C14.0972 10.3849 14.458 11.2551 14.458 12.1693C14.4492 13.1274 14.062 13.9889 13.4372 14.613C12.8124 15.2371 11.95 15.6239 10.9996 15.6239C10.0756 15.6239 9.21317 15.2635 8.55317 14.613C7.90197 13.9537 7.54117 13.0923 7.54117 12.1693C7.53237 11.2551 7.89317 10.3937 8.54437 9.73442C9.20437 9.07515 10.0756 8.71475 10.9996 8.71475ZM10.9996 10.0333C10.4276 10.0333 9.89077 10.253 9.47717 10.6662C9.07237 11.0705 8.85237 11.6067 8.86117 12.1605V12.1693C8.86117 12.7407 9.08117 13.2769 9.48597 13.6812C9.89077 14.0856 10.4276 14.3053 10.9996 14.3053C12.1788 14.3053 13.1292 13.3472 13.138 12.1693C13.138 11.5979 12.918 11.0617 12.5132 10.6574C12.1084 10.253 11.5716 10.0333 10.9996 10.0333ZM15.9364 8.50378C16.3764 8.50378 16.7372 8.86418 16.7372 9.3037C16.7372 9.74321 16.3764 10.0948 15.9364 10.0948C15.4964 10.0948 15.1444 9.74321 15.1444 9.3037C15.1444 8.86418 15.4964 8.50378 15.9364 8.50378Z" fill="white"/>
<path id="Path" opacity="0.5" d="M15.7871 5.92799L15.6992 5.73461C15.4616 5.23356 15.1887 4.65341 15.0215 4.31938C14.6167 3.52826 13.9216 3.08875 13.068 3.07996H8.92315C8.06955 3.08875 7.38315 3.52826 6.97835 4.31938C6.80235 4.67099 6.50315 5.30388 6.25675 5.82251L6.20395 5.92799C6.17755 5.99831 6.10715 6.03347 6.03675 6.03347C3.91595 6.03347 2.19995 7.75636 2.19995 9.86601V15.0874C2.19995 17.1971 3.91595 18.92 6.03675 18.92H15.9632C18.0752 18.92 19.7999 17.1971 19.7999 15.0874V9.86601C19.7999 7.75636 18.0752 6.03347 15.9632 6.03347C15.884 6.03347 15.8223 5.98952 15.7871 5.92799Z" fill="white"/>
</g>
</svg>
