<svg width="15" height="16" viewBox="0 0 15 16" fill="none" xmlns="http://www.w3.org/2000/svg">
<g id="google-icon" clip-path="url(#clip0_7623_4981)">
<path id="Vector" d="M14.9926 8.14973C14.9926 7.49422 14.9416 7.01587 14.8311 6.51981H7.6499V9.47846H11.8651C11.7802 10.2137 11.3212 11.321 10.3014 12.0651L10.2871 12.1641L12.5577 13.9976L12.715 14.014C14.1597 12.6232 14.9926 10.5769 14.9926 8.14973Z" fill="#4285F4"/>
<path id="Vector_2" d="M7.64946 15.9451C9.71457 15.9451 11.4482 15.2364 12.7146 14.014L10.301 12.0651C9.6551 12.5346 8.78824 12.8624 7.64946 12.8624C5.62683 12.8624 3.91015 11.4716 3.2982 9.54938L3.2085 9.55732L0.847526 11.4619L0.81665 11.5513C2.07442 14.1557 4.65797 15.9451 7.64946 15.9451Z" fill="#34A853"/>
<path id="Vector_3" d="M3.29786 9.5493C3.13639 9.05324 3.04295 8.5217 3.04295 7.97251C3.04295 7.42326 3.1364 6.89177 3.28937 6.39571L3.28509 6.29006L0.894537 4.35492L0.816322 4.3937C0.297938 5.47443 0.000488281 6.68805 0.000488281 7.97251C0.000488281 9.25697 0.297938 10.4705 0.816322 11.5513L3.29786 9.5493Z" fill="#FBBC05"/>
<path id="Vector_4" d="M7.64944 3.08272C9.08566 3.08272 10.0545 3.72937 10.6069 4.26977L12.7655 2.07289C11.4398 0.788428 9.71454 3.05176e-05 7.64944 3.05176e-05C4.65795 3.05176e-05 2.07441 1.7894 0.81665 4.39374L3.2897 6.39576C3.91014 4.4735 5.62682 3.08272 7.64944 3.08272Z" fill="#EB4335"/>
</g>
<defs>
<clipPath id="clip0_7623_4981">
<rect width="15" height="16" fill="white"/>
</clipPath>
</defs>
</svg>
