<svg width="33" height="30" viewBox="0 0 33 30" fill="none" xmlns="http://www.w3.org/2000/svg">
<g id="Logo">
<path id="Vector 33" d="M17.4155 26.1593C13.1288 26.1593 10.2699 30.5348 6.09657 29.555C-8.36648 26.1593 6.09658 0 16.5352 0C21.6022 0 28.798 7.37455 26.3449 10.6901C23.7038 13.5827 20.6915 9.5582 15.4033 9.5582C8.10887 9.5582 6.09657 18.4786 11.0015 20.6256C16.3948 22.9864 20.0567 15.8465 25.3388 15.8465C32.6623 15.8465 35.0228 27.2912 28.483 29.8065C25.3388 31.0158 21.7023 26.1593 17.4155 26.1593Z" fill="url(#paint0_radial_7645_1318)"/>
<path id="Intersect" fill-rule="evenodd" clip-rule="evenodd" d="M15.4088 26.4695C16.0473 26.2769 16.7122 26.1592 17.4155 26.1592C19.4525 26.1592 21.3428 27.2558 23.1031 28.2771C25.0472 29.405 26.8328 30.441 28.4829 29.8064C30.1551 29.1632 31.2454 27.9362 31.8196 26.466C30.8391 23.8051 28.5901 21.6316 25.3986 21.6316C23.0976 21.6316 21.1041 22.9864 19.1411 24.3206C17.9079 25.1587 16.6867 25.9887 15.4088 26.4695Z" fill="url(#paint1_radial_7645_1318)"/>
<path id="Intersect_2" d="M21.0084 10.879L21.0084 10.879C23.159 11.7192 24.8143 12.366 26.3448 10.6896C27.786 8.74174 25.8968 5.39283 23.0655 2.96145C23.0144 2.9176 22.9587 2.87925 22.8994 2.84738C21.6444 2.17267 20.3545 1.76025 19.1762 1.76025C12.241 1.76025 8.37 8.81036 8.31557 16.1613C8.35835 13.0286 10.8532 9.55774 15.4032 9.55774C17.6268 9.55774 19.448 10.2693 21.0084 10.879Z" fill="url(#paint2_radial_7645_1318)"/>
</g>
<defs>
<radialGradient id="paint0_radial_7645_1318" cx="0" cy="0" r="1" gradientUnits="userSpaceOnUse" gradientTransform="translate(-9.5 3) rotate(27.7451) scale(48.386 55.3472)">
<stop stop-color="#BE40C0"/>
<stop offset="1" stop-color="#FBA82B"/>
</radialGradient>
<radialGradient id="paint1_radial_7645_1318" cx="0" cy="0" r="1" gradientUnits="userSpaceOnUse" gradientTransform="translate(20.5 24) rotate(24.2602) scale(21.1715 16.3506)">
<stop stop-color="#48CCE0"/>
<stop offset="0.38" stop-color="#505ADD"/>
<stop offset="0.682" stop-color="#BE40C0"/>
<stop offset="0.943" stop-color="#FBA82B"/>
</radialGradient>
<radialGradient id="paint2_radial_7645_1318" cx="0" cy="0" r="1" gradientUnits="userSpaceOnUse" gradientTransform="translate(-7.50005 -3.5) rotate(26.6349) scale(39.066 40.6626)">
<stop offset="0.310718" stop-color="#48CCE0"/>
<stop offset="0.399794" stop-color="#505ADD"/>
<stop offset="0.691985" stop-color="#BE40C0"/>
<stop offset="0.943" stop-color="#FBA82B"/>
</radialGradient>
</defs>
</svg>
