<svg width="22" height="22" viewBox="0 0 22 22" fill="none" xmlns="http://www.w3.org/2000/svg">
<g id="Icons / Set 2 / Notification">
<path id="Union" fill-rule="evenodd" clip-rule="evenodd" d="M16.9022 8.18145C16.9022 9.28664 17.1944 9.93717 17.8372 10.6878C18.3243 11.2409 18.48 11.9517 18.48 12.721C18.48 13.4911 18.2264 14.2206 17.72 14.8135C17.0579 15.5243 16.123 15.978 15.1688 16.0569C13.7852 16.1748 12.4024 16.2741 11.0005 16.2741C9.5976 16.2741 8.21486 16.2147 6.83212 16.0569C5.87706 15.978 4.94212 15.5243 4.28005 14.8135C3.77278 14.2206 3.52002 13.4911 3.52002 12.721C3.52002 11.9517 3.6757 11.2409 4.16285 10.6878C4.82492 9.93717 5.09779 9.28664 5.09779 8.18145V7.80567C5.09779 6.32558 5.46775 5.35776 6.22778 4.41122C7.35776 3.02862 9.16905 2.19995 10.9611 2.19995H11.0389C12.8695 2.19995 14.7394 3.0685 15.8501 4.50959C16.5708 5.43753 16.9022 6.36546 16.9022 7.80567V8.18145ZM9.2072 17.3609C9.64712 17.267 12.3278 17.267 12.7677 17.3609C13.1438 17.4478 13.5505 17.6498 13.5505 18.093C13.5286 18.5157 13.2811 18.8889 12.9382 19.1255L12.9391 19.1264C12.4957 19.472 11.9753 19.6918 11.4313 19.7707C11.1304 19.8088 10.8348 19.8106 10.5445 19.7707C9.99958 19.6918 9.4792 19.472 9.03578 19.1264L9.03665 19.1255C8.69381 18.8889 8.4463 18.5157 8.42443 18.093C8.42443 17.6498 8.83112 17.4478 9.2072 17.3609Z" fill="white"/>
<path id="Fill-1" d="M17.8372 10.6878C17.1944 9.93717 16.9022 9.28664 16.9022 8.18145V7.80567C16.9022 6.36546 16.5708 5.43753 15.8501 4.50959C14.7394 3.0685 12.8695 2.19995 11.0389 2.19995H10.9611C9.16905 2.19995 7.35776 3.02862 6.22778 4.41122C5.46775 5.35776 5.09779 6.32558 5.09779 7.80567V8.18145C5.09779 9.28664 4.82492 9.93717 4.16285 10.6878C3.6757 11.2409 3.52002 11.9517 3.52002 12.721C3.52002 13.4911 3.77278 14.2206 4.28005 14.8135C4.94212 15.5243 5.87706 15.978 6.83212 16.0569C8.21486 16.2147 9.5976 16.2741 11.0005 16.2741C12.4024 16.2741 13.7852 16.1748 15.1688 16.0569C16.123 15.978 17.0579 15.5243 17.72 14.8135C18.2264 14.2206 18.48 13.4911 18.48 12.721C18.48 11.9517 18.3243 11.2409 17.8372 10.6878Z" fill="#1A1926"/>
<path id="Fill-4" opacity="0.4" d="M12.7676 17.361C12.3276 17.267 9.647 17.267 9.20708 17.361C8.831 17.4478 8.42432 17.6499 8.42432 18.0931C8.44618 18.5158 8.69369 18.8889 9.03654 19.1256L9.03566 19.1265C9.47908 19.4721 9.99947 19.6919 10.5443 19.7708C10.8347 19.8107 11.1303 19.8089 11.4312 19.7708C11.9752 19.6919 12.4956 19.4721 12.939 19.1265L12.9381 19.1256C13.281 18.8889 13.5285 18.5158 13.5503 18.0931C13.5503 17.6499 13.1436 17.4478 12.7676 17.361Z" fill="#1A1926"/>
</g>
</svg>
